<?xml version="1.0" encoding="UTF-8"?>
<svg width="64px" height="64px" viewBox="0 0 64 64" version="1.1" xmlns="http://www.w3.org/2000/svg" xmlns:xlink="http://www.w3.org/1999/xlink">
    <!-- Generator: Sketch 50.2 (55047) - http://www.bohemiancoding.com/sketch -->
    <title>Group</title>
    <desc>Created with Sketch.</desc>
    <defs></defs>
    <g id="Page-4" stroke="none" stroke-width="1" fill="none" fill-rule="evenodd">
        <g id="favicon">
            <g id="Group">
                <rect id="Mask" fill="#FFFFFF" x="0" y="0" width="64" height="64"></rect>
                <path d="M24.0542067,17.8261024 C24.0542067,14.0605016 27.7248311,11.7070011 32.3742886,11.7070011 C36.5343295,11.7070011 39.7155373,13.1191014 42.8967451,15.4726019 C43.8755782,16.1786521 44.3649948,16.4140021 45.0991197,16.4140021 C46.0779529,16.4140021 46.3226612,15.943302 46.3226612,15.2372519 L46.3226612,10.5302508 C46.3226612,9.82420063 46.0779529,9.35350053 45.343828,9.11815048 C42.4073285,8.17675026 37.5131627,7 32.1295803,7 C21.1177073,7 15,13.5898015 15,20.8856531 C15,37.1248068 40.9390788,33.594556 40.9390788,44.6560085 C40.9390788,51.2458099 30.9060389,55.952811 19.4047492,48.1862593 C18.4259161,47.4802091 17.9364995,47.009509 16.9576663,47.009509 C15.4894166,47.009509 15.2447083,47.7155592 15.2447083,48.4216093 L15.2447083,52.4225602 C15.2447083,53.1286104 15.4894166,53.5993105 16.2235415,54.0700106 C30.171914,60.424462 49.9932855,56.6588612 49.9932855,40.6550576 C50.4827021,25.8280042 24.0542067,26.7694044 24.0542067,17.8261024 L24.0542067,17.8261024 Z" id="Path" fill="#F06C00"></path>
            </g>
        </g>
    </g>
</svg>